HIERARCHY
ROOT Hips
{
  OFFSET -35.4901 99.2528 17.4586
  CHANNELS 6 Xposition Yposition Zposition Zrotation Xrotation Yrotation
  JOINT LeftUpLeg
  {
    OFFSET 8.64259 1.95398 -2.38835
    CHANNELS 3 Zrotation Xrotation Yrotation
    JOINT LeftLeg
    {
      OFFSET 43.7702 0 0
      CHANNELS 3 Zrotation Xrotation Yrotation
      JOINT LeftFoot
      {
        OFFSET 40.6238 0 0
        CHANNELS 3 Zrotation Xrotation Yrotation
        JOINT LeftToeBase
        {
          OFFSET 12.7242 0 0
          CHANNELS 3 Zrotation Xrotation Yrotation
          End Site
          {
            OFFSET 0 0 0
          }
        }
      }
    }
  }
  JOINT RightUpLeg
  {
    OFFSET -8.2249 1.95398 -2.59336
    CHANNELS 3 Zrotation Xrotation Yrotation
    JOINT RightLeg
    {
      OFFSET 43.5653 0 0
      CHANNELS 3 Zrotation Xrotation Yrotation
      JOINT RightFoot
      {
        OFFSET 40.6238 0 0
        CHANNELS 3 Zrotation Xrotation Yrotation
        JOINT RightToeBase
        {
          OFFSET 12.7242 0 0
          CHANNELS 3 Zrotation Xrotation Yrotation
          End Site
          {
            OFFSET 0 0 0
          }
        }
      }
    }
  }
  JOINT Spine
  {
    OFFSET 0.165834 0.87714 6.61349
    CHANNELS 3 Zrotation Xrotation Yrotation
    JOINT Spine1
    {
      OFFSET 7.38963 1.71661e-005 0
      CHANNELS 3 Zrotation Xrotation Yrotation
      JOINT Spine2
      {
        OFFSET 11.9445 1.14441e-005 0
        CHANNELS 3 Zrotation Xrotation Yrotation
        JOINT Spine3
        {
          OFFSET 14.7254 4.19617e-005 0
          CHANNELS 3 Zrotation Xrotation Yrotation
          JOINT Spine4
          {
            OFFSET 10.9679 0 0
            CHANNELS 3 Zrotation Xrotation Yrotation
            JOINT RightShoulder
            {
              OFFSET 2.46616 -1.6653 3.69651
              CHANNELS 3 Zrotation Xrotation Yrotation
              JOINT RightArm
              {
                OFFSET 13.0012 0 0
                CHANNELS 3 Zrotation Xrotation Yrotation
                JOINT RightForeArm
                {
                  OFFSET 28.7848 1.52588e-005 0
                  CHANNELS 3 Zrotation Xrotation Yrotation
                  JOINT RightHand
                  {
                    OFFSET 26.5688 1.52588e-005 0
                    CHANNELS 3 Zrotation Xrotation Yrotation
                    End Site
                    {
                      OFFSET 0 0 0
                    }
                  }
                }
              }
            }
            JOINT LeftShoulder
            {
              OFFSET 2.38034 -1.29275 -3.7523
              CHANNELS 3 Zrotation Xrotation Yrotation
              JOINT LeftArm
              {
                OFFSET 16.3182 6.10351e-005 0
                CHANNELS 3 Zrotation Xrotation Yrotation
                JOINT LeftForeArm
                {
                  OFFSET 27.0901 0 0
                  CHANNELS 3 Zrotation Xrotation Yrotation
                  JOINT LeftHand
                  {
                    OFFSET 24.5451 1.52588e-005 0
                    CHANNELS 3 Zrotation Xrotation Yrotation
                    End Site
                    {
                      OFFSET 0 0 0
                    }
                  }
                }
              }
            }
            JOINT Neck
            {
              OFFSET 5.0226 -0.0266342 0
              CHANNELS 3 Zrotation Xrotation Yrotation
              JOINT Head
              {
                OFFSET 6.69364 2.86102e-005 0
                CHANNELS 3 Zrotation Xrotation Yrotation
                End Site
                {
                  OFFSET 0 0 0
                }
              }
            }
          }
        }
      }
    }
  }
}
MOTION
Frames:	17
Frame Time:	0.0416667
-26.0026 82.9599 66.0312 -85.7365 -43.5789 -94.8666 -169.015 49.6377 93.1198 -117.739 5.6914 7.92727 73.6223 7.20248 8.30313 27.5121 4.88959 -7.92076 174.538 8.2016 96.2599 -53.5536 -15.9251 0.542124 114.872 -25.9206 0.795601 -1.05688 -3.4003 7.46425 1.64653 7.99788 -90.2603 10.8928 3.1579 -0.81561 -0.774682 3.11895 -0.953919 -23.3408 3.25687 0.17219 -3.32814 3.25688 0.172187 87.7489 -25.7187 -113.222 31.967 11.5861 -42.5783 -36.4872 -2.93606 -102.442 -35.5897 2.52448 -17.0824 -82.3591 -50.1587 90.2457 -23.8476 18.0728 19.362 67.7859 -26.4895 -91.2957 13.8086 -0.982014 -10.6341 33.3754 0.132968 9.65348 -12.7374 -3.62805 -4.54694 
-30.7163 84.2233 72.8591 -84.6166 -42.2928 -96.1686 -169.076 54.4228 90.4707 -109.351 2.68359 6.69248 75.8912 7.95578 6.31173 30.4065 4.46876 -7.93183 173.489 0.417987 92.0459 -46.9491 -16.783 -0.965879 110.611 -23.5674 1.01118 7.39843 -3.90417 8.6182 2.1684 7.93356 -89.8008 11.014 4.40902 -0.0257217 -0.649427 4.40361 -0.220132 -23.241 4.21253 1.30296 -3.22833 4.21253 1.30296 88.779 -23.2059 -112.322 34.6873 15.0291 -46.0183 -38.6307 -3.04232 -106.125 -39.8098 1.99979 -14.4896 -81.8924 -49.2541 90.8812 -23.6196 17.558 28.5101 67.0135 -28.9531 -92.2175 13.5825 -1.35096 -13.3461 33.668 -2.63727 8.91447 -13.5437 -5.87028 -5.15735 
-36.4879 86.5429 79.8497 -84.5187 -41.6084 -98.402 -169.236 54.778 88.4535 -96.8095 0.710484 4.69205 78.5244 8.72898 3.19534 26.2075 5.39644 -8.45071 171.964 -7.83961 88.7622 -39.0122 -21.179 -3.1636 96.0267 -18.6742 -4.82056 19.3651 -4.18952 10.2062 2.71277 7.93236 -89.2627 10.9952 5.74214 0.919773 -0.663204 5.77703 0.665311 -23.2832 5.19959 2.6073 -3.27055 5.1996 2.60729 90.2912 -20.6632 -110.254 37.5774 17.01 -46.0402 -40.4219 -2.1001 -109.664 -42.8192 1.0414 -11.3288 -82.4197 -45.5886 89.7464 -25.1244 15.3348 36.4258 65.8782 -30.2695 -93.4744 13.6962 -1.35186 -13.1171 33.0782 -6.12341 7.45074 -13.6179 -8.42723 -5.854 
-42.7302 88.9414 86.9395 -85.1599 -41.8079 -101.061 -170.534 52.0919 87.0632 -82.6708 0.522541 2.19675 79.5596 8.6458 -0.450916 24.1988 3.28682 -4.65401 170.363 -14.504 84.6559 -31.7246 -22.1943 -5.6485 78.0579 -9.53208 -6.62434 29.2869 -4.69546 12.5689 3.09935 7.99543 -88.7913 10.8396 6.72927 1.77557 -0.814673 6.80085 1.4764 -23.4534 5.88387 3.72154 -3.44079 5.88386 3.72152 91.2967 -18.6424 -108.93 39.6118 19.0632 -43.3878 -37.7673 -2.05956 -112.269 -42.9414 1.74255 -13.1273 -83.101 -42.6471 88.3351 -27.6396 14.0387 43.6146 66.6931 -34.4642 -95.1954 20.2306 -3.9496 -23.1692 33.4897 -8.92564 7.10715 -15.6354 -10.5889 -8.18138 
-48.866 90.6385 93.9767 -84.8919 -43.0003 -102.929 -172.078 49.4115 85.4427 -67.3013 5.54623 -0.282575 75.7441 7.39652 0.912719 27.7459 2.16409 -3.49597 169.232 -18.7087 82.226 -27.9313 -21.7296 -7.18934 65.9888 -2.81606 -3.44454 20.4523 -2.90193 7.53964 3.32514 8.00955 -88.3078 10.7761 7.40165 2.6807 -0.875747 7.51239 2.35079 -23.5183 6.25359 4.78688 -3.50563 6.25359 4.78687 92.0696 -16.6961 -108.039 41.2326 20.9831 -39.7871 -35.8721 -2.39241 -114.383 -41.6771 2.25227 -14.7021 -83.8132 -38.3991 86.5818 -29.24 11.5575 47.6612 60.9119 -33.983 -98.5585 25.4615 -4.50946 -22.324 34.8523 -11.5311 6.49917 -18.9807 -12.3701 -10.0441 
-54.632 91.5063 100.792 -84.3112 -44.2306 -103.702 -173.722 46.3301 84.5423 -51.5074 10.6833 -2.35096 72.5848 6.06018 0.221464 31.4823 0.165478 -0.55755 169.377 -21.5739 81.8827 -29.0183 -19.9917 -8.40507 65.3084 -2.17233 -2.71874 10.6304 -0.589011 2.93748 3.4497 7.98547 -87.9591 10.7926 7.81029 3.33484 -0.858196 7.94942 2.98618 -23.4977 6.44737 5.53297 -3.48504 6.44738 5.53298 92.5167 -15.4762 -107.539 40.1289 20.2666 -36.2974 -36.9213 -1.03288 -114.264 -41.2695 2.17492 -14.6925 -84.5296 -35.9669 84.9425 -28.62 9.65382 49.9274 65.219 -34.4848 -96.1639 16.852 -1.64386 -13.5231 34.4701 -13.3967 5.94836 -19.8489 -13.6561 -11.1148 
-60.0141 91.8562 107.276 -83.7056 -46.0969 -102.827 -175.293 43.7082 84.2777 -37.5924 15.37 -3.50697 68.0939 3.85012 -0.183308 33.4843 -0.310652 0.10772 170.153 -23.7162 83.4434 -32.2088 -18.4667 -7.38173 69.7989 -4.56021 -3.89768 13.389 -1.4722 4.43957 3.39901 7.92925 -87.933 10.9043 7.72252 3.38519 -0.747093 7.86392 3.04043 -23.3815 6.34863 5.55417 -3.36886 6.34862 5.55416 93.0582 -15.0562 -106.361 37.679 15.5369 -33.5514 -40.5794 1.45762 -111.432 -42.2828 1.34712 -12.3288 -85.1163 -38.5742 84.3522 -24.3803 10.1955 50.2895 63.2768 -35.8131 -98.1624 16.4069 -1.72629 -14.2335 33.6078 -14.2394 6.19496 -18.8785 -14.5674 -11.4763 
-65.1999 91.62 113.566 -83.1648 -48.0073 -100.565 -175.434 41.7698 84.178 -28.7177 18.7831 -4.47713 69.1553 3.86146 1.08558 31.4219 -0.489094 0.609696 173.198 -23.5648 87.8352 -39.131 -15.3363 -5.44526 69.8606 -4.81334 -3.73003 13.6914 -1.47967 4.44691 3.29827 7.77336 -88.1311 11.2364 7.43321 2.98879 -0.415854 7.55747 2.65725 -23.0509 6.19142 5.08944 -3.03828 6.19142 5.08944 92.635 -16.0965 -106.921 35.6548 11.9803 -29.1308 -40.4601 0.62824 -108.364 -41.7495 1.78126 -13.496 -85.6759 -42.0166 83.9823 -21.6659 12.1319 47.7078 61.0471 -35.1521 -98.8303 16.9284 -1.6124 -13.3427 31.1554 -14.8538 5.68423 -16.4806 -15.2358 -10.2332 
-70.3537 91.1384 119.634 -85.0326 -49.6146 -100.134 -175.644 39.3417 84.3914 -27.0873 15.7029 -4.90433 73.4828 5.53159 -1.01643 26.0665 -0.622785 1.24003 174.516 -22.4209 90.9367 -49.4594 -13.9221 -3.22975 69.5358 -4.70372 -2.87213 14.6091 -2.12352 5.68397 3.12335 7.75847 -88.3702 11.2865 6.97429 2.55326 -0.367543 7.07986 2.24254 -22.9972 5.88434 4.53591 -2.9846 5.88435 4.5359 91.4018 -18.514 -108.744 33.8987 7.83956 -23.4414 -39.0044 -0.743351 -103.173 -43.2666 1.4455 -11.8819 -85.7054 -44.8439 84.4016 -20.2545 14.6219 41.9278 60.0234 -33.2921 -98.091 18.4568 -1.65772 -12.8745 28.9171 -15.1117 4.1225 -15.427 -15.0728 -8.74675 
-75.6484 90.2237 125.803 -88.9446 -51.1297 -101.873 -175.995 34.8109 84.2799 -27.7507 11.6105 -4.64744 74.5187 6.08137 -1.71878 27.7614 -1.16581 2.02902 173.818 -20.9382 92.1174 -61.8069 -13.3612 -1.3098 70.1127 -4.88094 -1.93832 13.1444 -2.36555 6.12129 2.81071 7.90324 -88.5868 11.0126 6.24997 2.21415 -0.644712 6.34132 1.936 -23.2574 5.29541 3.99363 -3.24472 5.29543 3.99364 90.076 -21.2585 -110.442 33.682 4.79144 -18.2543 -33.4105 -4.9604 -97.0251 -41.9679 2.32143 -13.9207 -86.0616 -47.3676 84.2377 -19.9528 16.2499 34.5651 62.4656 -31.1837 -95.6249 17.1271 -1.68892 -13.6526 26.2674 -14.5765 2.08273 -13.9454 -13.9866 -7.69526 
-80.7385 89.5988 131.82 -92.8917 -52.5005 -104.566 -177.168 32.1774 84.389 -32.1173 12.6034 -3.49289 68.0136 3.46064 -1.35765 23.5872 0.486802 -0.370474 171.063 -18.191 91.0268 -74.1941 -10.9141 0.05137 70.876 -5.78668 -3.67444 9.34492 -3.39275 7.86382 2.37547 8.03369 -88.6892 10.7595 5.33471 2.11394 -0.901832 5.42254 1.87654 -23.4888 4.45277 3.62133 -3.4762 4.45278 3.62133 88.9157 -24.8372 -111.207 34.7972 2.32531 -13.9119 -24.288 -7.88643 -88.5074 -35.704 3.64326 -19.0015 -86.5928 -49.7858 83.805 -20.0579 19.8859 25.0978 62.4185 -28.2268 -93.1233 13.4673 -1.34184 -13.3489 22.7701 -13.8343 -1.04818 -11.5293 -12.5242 -5.88158 
-85.4896 88.4321 137.717 -96.0831 -52.8039 -108.226 -176.879 30.0051 83.1063 -38.5541 13.5182 -2.67139 63.7537 1.84004 0.793883 21.5457 1.63424 -2.27534 167.947 -13.5665 87.8211 -87.5998 -5.10995 0.0510445 73.1596 -7.35134 -4.05087 9.36181 -2.54784 6.40156 1.88547 8.26581 -88.6102 10.2946 4.39172 2.38285 -1.37072 4.49232 2.18701 -23.9293 3.47286 3.59292 -3.91661 3.47287 3.59293 88.2456 -27.7547 -111.229 36.5895 0.4705 -10.2113 -20.8725 -9.64285 -81.3982 -34.0132 3.6504 -19.5381 -86.9355 -52.1379 83.6656 -16.8834 23.353 11.1414 61.9337 -25.657 -91.511 13.377 -1.18957 -12.325 21.0173 -12.726 -3.41717 -9.10396 -10.9406 -4.38213 
-89.7352 86.6808 143.201 -98.0146 -53.2771 -111.636 -174.217 29.7173 80.9861 -50.1067 14.3457 -2.76797 73.6036 6.22268 0.342118 22.5242 0.833251 -0.862778 166.374 -5.60282 84.5115 -101.41 1.7359 -0.502895 75.6557 -8.58459 -3.814 9.07725 -2.01391 5.46469 1.33251 8.51719 -88.4257 9.78968 3.36917 2.85433 -1.87974 3.49149 2.70327 -24.4091 2.35624 3.73433 -4.39645 2.35624 3.73433 87.2099 -31.151 -111.721 37.6761 1.05026 -4.81744 -18.9968 -8.65628 -78.7756 -34.5998 3.61361 -18.9181 -87.0457 -54.5824 83.8813 -10.2331 26.5844 -7.34246 65.7335 -24.1565 -89.0172 8.87064 -0.820418 -11.6925 21.9895 -11.745 -4.89692 -8.05237 -9.55764 -3.34547 
-93.7937 85.9576 148.125 -99.7688 -52.2362 -115.779 -172.54 25.1 79.4413 -54.293 14.5637 -3.67159 82.3298 9.67935 -1.99087 17.1957 -0.484926 1.58203 169.453 3.5652 81.4388 -112.709 1.88494 -0.8105 77.116 -10.0232 -5.2741 6.04115 -1.49074 4.6244 0.816278 8.8697 -88.0975 9.08167 2.47823 3.59378 -2.59159 2.63389 3.48136 -25.0935 1.28467 4.1715 -5.08082 1.28466 4.17149 86.6763 -31.917 -112.394 40.5793 4.2971 1.81782 -21.5104 -9.61179 -80.5108 -31.4977 2.42946 -16.2657 -87.4252 -54.2948 83.2943 -3.45038 25.5398 -26.4117 67.532 -23.2845 -88.5976 10.4885 -0.623881 -9.09948 25.227 -10.6629 -6.46618 -8.30425 -7.83274 -2.02464 
-98.3259 85.5425 153.003 -100.308 -51.2326 -115.39 -172.143 20.5163 81.4635 -56.4069 14.6589 -3.33108 83.8934 10.7668 -0.0935197 29.3234 2.28638 -3.95544 174.6 13.1832 82.0157 -119.153 -4.4372 -0.576737 76.535 -10.5811 -10.0985 4.76363 -3.12953 7.23682 0.393244 9.03901 -88.2146 8.75975 1.57747 3.4295 -2.91455 1.7268 3.35685 -25.4148 0.474625 3.74458 -5.40212 0.474656 3.74459 88.8395 -30.2972 -108.928 46.0026 1.04103 8.2172 -12.03 -6.53173 -79.8805 -32.9066 3.72741 -19.102 -88.7883 -51.1897 80.7723 -1.57855 21.1461 -39.457 62.9772 -22.8563 -90.898 13.6213 -1.11568 -11.6732 27.5193 -8.65975 -5.66528 -8.84792 -6.03262 -2.06965 
-103.166 85.1216 158.128 -98.2 -49.9144 -111.253 -170.709 16.873 85.4152 -57.9285 15.319 -3.28172 85.9302 11.7686 0.618906 37.0513 3.00925 -6.86226 -179.823 23.3317 82.9279 -120.994 -8.11131 -0.350287 78.0257 -11.1542 -9.73753 4.22289 -3.89215 8.42228 -0.0626732 8.81657 -88.4844 9.22312 0.554098 2.96344 -2.45107 0.683938 2.93621 -24.9589 -0.361716 2.99299 -4.94626 -0.361706 2.993 89.5188 -30.12 -107.665 48.3422 -3.10516 16.2414 -12.6409 -4.90862 -80.7749 -30.2587 3.85435 -20.8637 -88.9846 -49.6533 80.1794 -0.442741 15.0217 -46.3103 62.5924 -23.3331 -92.7576 12.9543 -0.741374 -9.22098 26.6177 -5.57652 -4.82976 -8.86643 -3.43159 -2.05456 
-108.54 85.5414 163.564 -94.9239 -49.1854 -105.664 -170.378 12.8262 89.4596 -56.4188 16.9914 -2.76518 88.2915 12.8888 1.22671 38.3859 2.38938 -5.96805 -176.802 33.0954 84.4111 -117.792 -7.32459 -0.45773 79.3665 -11.411 -7.42334 5.71512 -3.62518 8.06634 -0.621143 8.45677 -88.8567 9.96293 -0.718367 2.32862 -1.70995 -0.6152 2.35795 -24.2336 -1.38489 2.00529 -4.22099 -1.38487 2.00527 89.5382 -30.3512 -107.532 48.7866 -6.91279 24.2949 -18.6347 -4.34792 -81.5053 -28.7164 3.87569 -22.6198 -87.9837 -47.9146 81.363 -0.617896 8.43264 -50.4828 61.1179 -24.3618 -95.247 13.9817 -0.974313 -10.5104 25.583 -2.04357 -3.88296 -9.33255 -0.45962 -1.46075 
